<?xml version="1.0" encoding="iso-8859-1"?>
<!-- Generator: Adobe Illustrator 19.0.0, SVG Export Plug-In . SVG Version: 6.00 Build 0)  -->
<svg version="1.1" id="Layer_1" xmlns="http://www.w3.org/2000/svg" xmlns:xlink="http://www.w3.org/1999/xlink" x="0px" y="0px"
	 viewBox="0 0 482.555 482.555" style="enable-background:new 0 0 482.555 482.555;" xml:space="preserve">
<path style="fill:#FCD462;" d="M403.31,213.303l78.908-24.094L429.211,10.912c-2.409-8.433-10.842-12.649-19.275-10.24
	L234.049,54.282l24.094,80.113c3.012-6.024,8.433-10.842,15.059-12.649c15.059-4.819,30.72,6.024,31.925,22.287
	c0.602,9.638-4.819,19.275-13.252,23.492c-8.433,4.216-16.866,3.614-24.094-0.602l24.094,80.113l78.908-24.094
	c-4.216,7.228-4.819,16.264-0.602,24.094c4.216,8.433,13.854,13.854,23.492,13.252c16.264-1.205,26.504-17.468,22.287-32.527
	C414.153,221.134,409.334,215.712,403.31,213.303z"/>
<path style="fill:#64798A;" d="M217.183,154.875c-7.228,0-13.252,3.012-18.071,7.831V79.581H15.395
	c-8.433,0-15.059,6.626-15.059,15.661v185.525h82.522c-4.819-4.819-7.831-10.842-7.831-18.071c0-15.661,14.456-28.311,30.72-24.094
	c9.035,2.409,16.866,10.24,18.673,19.275c1.807,9.035-1.205,17.468-7.228,22.889h82.522v-83.727
	c5.421,6.024,13.854,9.035,22.889,7.228c9.638-1.807,16.866-9.035,19.275-18.673C244.891,169.331,232.844,154.875,217.183,154.875z"
	/>
<path style="fill:#E56353;" d="M315.367,280.766c6.024,5.421,9.035,13.854,7.228,22.889c-1.807,9.638-9.035,17.468-18.673,19.275
	c-16.264,3.614-30.72-8.433-30.72-24.094c0-7.228,3.012-13.854,7.831-18.071h-81.92v83.727c-5.421-6.024-13.854-9.035-22.889-7.228
	c-9.638,1.807-16.866,9.035-19.275,18.673c-3.614,16.264,8.433,30.72,24.094,30.72c7.228,0,13.252-3.012,18.071-7.831v83.727H382.83
	c8.433,0,15.059-6.626,15.059-15.661V280.766H315.367z"/>
<path style="fill:#EBF0F3;" d="M176.223,356.663c9.035-1.807,17.468,1.807,22.889,7.228v-83.125H116.59
	c6.024-5.421,9.035-13.854,7.228-22.889c-1.807-9.638-9.035-17.468-18.673-19.275c-16.264-3.614-30.72,8.433-30.72,24.094
	c0,7.228,3.012,13.854,7.831,18.071H0.336v185.525c0,8.433,6.626,15.661,15.059,15.661h183.718v-83.727
	c-4.216,4.819-10.842,7.831-18.071,7.831c-15.661,0-27.708-14.456-24.094-30.72C159.357,366.301,167.188,358.47,176.223,356.663z"/>
<g>
</g>
<g>
</g>
<g>
</g>
<g>
</g>
<g>
</g>
<g>
</g>
<g>
</g>
<g>
</g>
<g>
</g>
<g>
</g>
<g>
</g>
<g>
</g>
<g>
</g>
<g>
</g>
<g>
</g>
</svg>
